<svg width="51" height="52" viewBox="0 0 51 52" fill="none" xmlns="http://www.w3.org/2000/svg">
<path d="M49.8543 37.2193C48.8842 35.7938 47.2388 35.4457 45.4513 36.2869L44.5039 36.704C45.9977 33.52 46.1831 29.9707 45.4394 26.6181C44.5854 22.7675 42.5225 19.0373 39.3083 15.531C39.0241 15.221 38.5424 15.2 38.2322 15.4843C37.9221 15.7685 37.9012 16.2502 38.1855 16.5604C41.2167 19.8669 43.157 23.3617 43.9524 26.9478C44.7902 30.7253 44.3028 34.6208 42.1648 37.7338L32.6847 41.908L32.6925 40.8373C32.6927 40.8103 32.6915 40.7833 32.6888 40.7564C32.4699 38.5558 30.7878 36.8025 28.5982 36.4927C28.5917 36.4917 28.5852 36.4909 28.5786 36.4902L20.1529 35.5201C16.9129 35.0589 16.0785 33.1173 11.6905 32.0102C11.3874 29.4376 11.7915 26.6985 12.8991 23.9525C14.5673 19.8171 17.8308 15.7993 22.355 12.3021C24.0413 13.4977 31.5644 13.6465 33.2479 12.1042C34.1104 12.7592 34.9335 13.4342 35.7003 14.1174C35.8455 14.2468 36.0265 14.3103 36.2067 14.3103C36.4164 14.3103 36.6252 14.2243 36.7756 14.0554C37.0554 13.7414 37.0276 13.26 36.7135 12.9802C35.873 12.2314 34.9689 11.4925 34.0206 10.7784C34.2428 9.83609 33.9318 8.73321 33.1112 8.07671C35.4958 4.45985 36.1894 2.09251 35.2313 0.852223C34.5733 0.000210376 33.7547 0.400064 33.4051 0.570893C32.8126 0.860145 32.4895 0.875379 31.9443 0.51869C30.9042 -0.161884 29.811 -0.183822 28.7374 0.51869C28.1853 0.87995 27.7505 0.87995 27.1986 0.51869C26.1584 -0.161884 25.0656 -0.183822 23.9917 0.51869C23.4403 0.879645 23.116 0.857301 22.5328 0.56744C22.1836 0.393869 21.3659 -0.0125866 20.7037 0.839528C19.7672 2.04488 20.3938 4.33756 22.6175 7.83143C22.4813 7.90507 22.3515 7.9915 22.2303 8.09022C21.3459 7.15624 19.8969 6.18215 17.8015 6.41615C16.0634 6.61065 14.7818 6.03631 14.0126 5.52037C13.6632 5.28637 13.1901 5.3796 12.9559 5.72877C12.7217 6.07815 12.815 6.55123 13.1643 6.78544C14.1449 7.44285 15.7746 8.17472 17.9705 7.92985C19.5894 7.74825 20.6879 8.57559 21.3717 9.41755C21.3624 9.45005 21.3537 9.48275 21.3457 9.51545C20.7624 9.52459 19.8907 9.57903 18.9307 9.7787C16.622 10.259 14.9082 11.3562 13.9746 12.9519C13.7622 13.3149 13.8843 13.7815 14.2473 13.994C14.6104 14.2063 15.0768 14.0842 15.2892 13.7212C16.678 11.3478 20.0679 11.0575 21.4143 11.0393C21.4201 11.0561 21.4269 11.0726 21.433 11.0893C16.6282 14.7956 13.2831 18.9289 11.4867 23.3825C10.3512 26.1975 9.89763 29.0177 10.1279 31.6978C9.39753 31.5898 8.65876 31.5318 7.91644 31.5267V31.0661C7.91644 29.8475 6.92498 28.8561 5.70632 28.8561H2.21011C0.991459 28.8561 0 29.8476 0 31.0661V48.8035C0 50.0223 0.991459 51.0136 2.21011 51.0136H5.70622C6.92488 51.0136 7.91633 50.0222 7.91633 48.8035V48.5866L15.5428 51.4252C16.5677 51.8065 17.6418 52 18.7353 52H30.0988C31.8362 52 33.5301 51.5084 34.9975 50.5786C50.1567 40.9687 49.2362 41.5666 49.3237 41.489C50.5448 40.4052 50.7729 38.5695 49.8543 37.2193ZM31.8187 11.2017C29.0336 11.9049 26.3258 11.9049 23.5401 11.2017C22.3448 10.8996 22.6911 8.76775 23.9757 9.0899C26.4678 9.71553 28.8907 9.71553 31.3831 9.0899C32.6453 8.77303 33.0332 10.8948 31.8187 11.2017ZM21.8372 1.9228C21.8432 1.92574 21.8492 1.92879 21.8549 1.93164C22.8856 2.44392 23.7888 2.47175 24.8257 1.79341C26.1232 0.944036 26.2641 2.3059 27.9678 2.3059C28.7881 2.3059 29.2407 2.00974 29.5712 1.79341C30.1234 1.43205 30.5583 1.43225 31.1104 1.79341C32.1518 2.4749 33.0332 2.44128 34.0939 1.92971C34.2506 2.4946 33.896 4.17862 31.6376 7.54096C30.5161 7.52187 28.8887 8.62332 24.2816 7.59804C22.0281 4.19223 21.6797 2.49186 21.8372 1.9228ZM48.3538 40.3126L34.1823 49.2925C32.9592 50.0676 31.5471 50.4774 30.0989 50.4774H18.7354C17.8239 50.4774 16.9285 50.3161 16.0742 49.9981L7.91633 46.9617V38.7599C7.91633 38.3393 7.57539 37.9983 7.15482 37.9983C6.73424 37.9983 6.39329 38.3393 6.39329 38.7599V48.8039C6.39329 49.1827 6.08505 49.4909 5.70632 49.4909H2.21011C1.83128 49.4909 1.52314 49.1826 1.52314 48.8039V31.0665C1.52314 30.6877 1.83128 30.3797 2.21011 30.3797H5.70622C6.08505 30.3797 6.39319 30.6878 6.39319 31.0665V35.1995C6.39319 35.6202 6.73414 35.9612 7.15471 35.9612C7.57529 35.9612 7.91623 35.6202 7.91623 35.1995V33.0503C14.2163 33.0985 15.6328 36.4191 19.949 37.0296C19.9555 37.0306 19.962 37.0314 19.9685 37.0321L28.3939 38.0022C29.8692 38.2151 31.0046 39.3899 31.1689 40.869L31.1583 42.3177H23.3009C22.8803 42.3177 22.5393 42.6586 22.5393 43.0793C22.5393 43.5 22.8802 43.8409 23.3009 43.8409H31.9144C32.0106 43.8409 32.1217 43.8196 32.2183 43.7775C32.2339 43.7705 46.0576 37.6842 46.0738 37.6771C47.0702 37.2343 47.9787 37.171 48.5948 38.0763C49.0738 38.7798 48.9677 39.731 48.3538 40.3126Z" fill="black"/>
<path d="M27.8792 34.5539C28.2997 34.5539 28.6408 34.213 28.6408 33.7923V32.5299C30.7788 32.1829 32.0263 30.4524 32.2977 28.8379C32.6367 26.8212 31.5803 25.0673 29.6065 24.3697C29.2578 24.2464 28.9368 24.1285 28.6407 24.0146V19.1587C29.5416 19.3081 30.0826 19.7744 30.122 19.8092C30.4313 20.0905 30.9101 20.0697 31.194 19.762C31.4792 19.4528 31.4597 18.971 31.1505 18.6858C31.0968 18.6362 30.164 17.7964 28.6407 17.6208V16.5377C28.6407 16.1171 28.2997 15.7761 27.8791 15.7761C27.4585 15.7761 27.1175 16.1171 27.1175 16.5377V17.6824C26.9339 17.7175 26.7458 17.7622 26.5525 17.8204C25.2607 18.2095 24.295 19.3172 24.0323 20.7112C23.7939 21.9761 24.195 23.1927 25.0789 23.8859C25.5864 24.284 26.2252 24.6484 27.1175 25.038V31.0608C26.2368 31.0235 25.6946 30.8581 24.7489 30.2394C24.397 30.0093 23.9249 30.1077 23.6947 30.4598C23.4644 30.8117 23.563 31.2838 23.9151 31.514C25.1583 32.3274 25.9894 32.5395 27.1175 32.5834V33.7923C27.1175 34.213 27.4585 34.5539 27.8792 34.5539ZM26.0189 22.6875C25.5841 22.3464 25.3964 21.6973 25.5291 20.9933C25.6522 20.3405 26.101 19.5473 26.9919 19.2789C27.0343 19.2661 27.0759 19.2552 27.1175 19.244V23.3578C26.6615 23.1301 26.3039 22.911 26.0189 22.6875ZM29.0989 25.8058C30.9941 26.4756 30.8767 28.1028 30.7955 28.5856C30.6276 29.585 29.8939 30.6521 28.6407 30.9732V25.6407C28.789 25.695 28.9404 25.7497 29.0989 25.8058Z" fill="black"/>
</svg>
