<svg width="52" height="46" viewBox="0 0 52 46" fill="none" xmlns="http://www.w3.org/2000/svg">
<path d="M49.7169 19.2254C48.3769 18.2035 46.4803 17.2925 44.0801 16.5183C42.6272 16.0496 41.031 15.6447 39.3253 15.3067C39.8854 13.6606 40.3328 12.0758 40.6533 10.5832C41.1829 8.11739 41.3424 6.01952 41.1273 4.348C40.8843 2.45823 40.1685 1.15803 39 0.483448C37.8315 -0.191333 36.3476 -0.160966 34.5894 0.573331C33.0343 1.22292 31.2973 2.40989 29.4266 4.10141C28.2935 5.12607 27.1438 6.30694 25.9974 7.61628C24.3933 5.78328 22.7945 4.21292 21.273 2.99001C17.8232 0.217152 14.9625 -0.649684 13 0.483448C11.8315 1.15813 11.1157 2.45823 10.8727 4.348C10.6576 6.01952 10.8171 8.11739 11.3467 10.5832C11.6672 12.0758 12.1146 13.6606 12.6747 15.3067C10.9691 15.6447 9.3729 16.0496 7.91995 16.5183C5.51962 17.2927 3.62314 18.2035 2.28312 19.2254C0.768117 20.3808 0 21.6508 0 23.0001C0 24.3493 0.768117 25.6194 2.28312 26.7747C3.62314 27.7966 5.51972 28.7076 7.91995 29.4818C11.5437 30.6508 16.0534 31.4264 20.9524 31.7426C22.2667 33.7137 23.6282 35.552 25.0028 37.2144C23.848 38.5447 22.6905 39.7388 21.5516 40.7687C18.2016 43.7978 15.2895 45.0794 13.7617 44.1974C11.9959 43.1779 11.8298 39.1702 13.3284 33.7386C13.4403 33.333 13.2022 32.9136 12.7967 32.8017C12.3912 32.6896 11.9717 32.9278 11.8598 33.3333C10.091 39.7443 10.496 44.071 13 45.5167C13.5593 45.8396 14.1909 46.0011 14.8903 46.0011C15.652 46.0011 16.4941 45.8096 17.4106 45.4269C18.9657 44.7773 20.7027 43.5903 22.5734 41.8988C23.7057 40.8749 24.8545 39.6951 26 38.3869C27.1455 39.6951 28.2943 40.875 29.4266 41.8988C31.2973 43.5903 33.0343 44.7774 34.5894 45.4269C35.506 45.8097 36.348 46.0011 37.1097 46.0011C37.809 46.0011 38.4407 45.8396 39 45.5167C40.1685 44.842 40.8843 43.5419 41.1273 41.6521C41.3424 39.9806 41.1829 37.8827 40.6533 35.4169C40.3328 33.9243 39.8854 32.3395 39.3253 30.6934C41.0309 30.3554 42.6271 29.9505 44.0801 29.4818C46.4804 28.7075 48.3769 27.7966 49.7169 26.7747C51.2319 25.6194 52 24.3493 52 23.0001C52 21.6508 51.2319 20.3808 49.7169 19.2254ZM30.4484 5.23139C33.7984 2.20229 36.7105 0.920675 38.2383 1.80275C39.7662 2.68492 40.1122 5.84767 39.1639 10.2633C38.8415 11.7646 38.3862 13.3641 37.8114 15.0293C35.6841 14.6701 33.4109 14.41 31.0463 14.2575C29.7328 12.2887 28.3672 10.4487 26.9945 8.78872C28.1501 7.45724 29.3086 6.26205 30.4484 5.23139ZM32.1103 18.8279C32.2041 18.9879 32.2978 19.1487 32.391 19.3102C33.1015 20.5408 33.7694 21.7742 34.3913 23.0001C33.7693 24.2259 33.1015 25.4593 32.391 26.6899C31.6805 27.9206 30.9464 29.1156 30.1956 30.2672C28.823 30.3415 27.421 30.3797 26 30.3797C24.579 30.3797 23.177 30.3415 21.8044 30.2672C21.0537 29.1156 20.3195 27.9206 19.609 26.6899C18.8991 25.4603 18.2316 24.2278 17.6101 23.003C18.2356 21.7679 18.9037 20.5319 19.609 19.3103C20.3195 18.0797 21.0536 16.8846 21.8044 15.7331C23.177 15.6587 24.579 15.6205 26 15.6205C29.991 15.6205 33.8347 15.9198 37.2847 16.4849C36.6932 18.0504 36.0042 19.6634 35.2273 21.2992C34.7454 20.383 34.2393 19.4648 33.7103 18.5486C33.6153 18.384 33.5199 18.2202 33.4243 18.0572C33.2115 17.6944 32.7449 17.5727 32.3819 17.7856C32.019 17.9983 31.8973 18.4651 32.1103 18.8279ZM35.2273 24.701C36.0042 26.3367 36.6932 27.9498 37.2847 29.5153C35.6332 29.7859 33.8918 29.9956 32.0867 30.1406C32.6392 29.2652 33.1814 28.3678 33.7103 27.4516C34.2393 26.5354 34.7454 25.6172 35.2273 24.701ZM16.7736 21.3006C15.9963 19.6644 15.307 18.0508 14.7154 16.4848C16.3669 16.2143 18.1083 16.0045 19.9134 15.8595C19.3609 16.7349 18.8187 17.6323 18.2898 18.5485C17.7636 19.4597 17.2574 20.3791 16.7736 21.3006ZM22.8595 14.1585C23.8867 12.669 24.9383 11.2668 25.9974 9.97274C27.055 11.2648 28.109 12.6687 29.1378 14.1584C28.1043 14.1177 27.057 14.097 26 14.097C24.9421 14.097 23.8938 14.1177 22.8595 14.1585ZM12.8361 10.2633C11.8878 5.84767 12.2338 2.68492 13.7617 1.80275C15.0941 1.03351 17.484 1.89892 20.3186 4.17738C21.8211 5.38516 23.4067 6.95156 25.0002 8.78893C23.6266 10.4505 22.266 12.2877 20.9525 14.2576C18.5884 14.4101 16.3156 14.6701 14.1886 15.0293C13.6139 13.3641 13.1585 11.7646 12.8361 10.2633ZM1.52344 23.0001C1.52344 21.2357 4.08952 19.3547 8.38764 17.9681C9.84902 17.4967 11.4619 17.0914 13.1913 16.7564C13.9442 18.7791 14.856 20.8785 15.9066 23.0034C14.8626 25.1177 13.9469 27.2224 13.1939 29.2441C11.4636 28.9092 9.84973 28.5035 8.38764 28.0319C4.08952 26.6454 1.52344 24.7644 1.52344 23.0001ZM14.7182 29.5158C15.3102 27.9501 16.0017 26.3347 16.7749 24.705C17.2561 25.6199 17.7615 26.5368 18.2897 27.4515C18.8186 28.3677 19.3608 29.2651 19.9133 30.1405C18.1093 29.9957 16.3688 29.7861 14.7182 29.5158ZM22.8595 31.8416C23.8938 31.8824 24.9421 31.9031 26 31.9031C27.0579 31.9031 28.1062 31.8823 29.1405 31.8416C28.1125 33.3323 27.06 34.7355 26 36.0305C24.94 34.7355 23.8875 33.3323 22.8595 31.8416ZM39.1639 35.7368C40.1122 40.1524 39.7662 43.3152 38.2383 44.1974C36.7103 45.0794 33.7983 43.7977 30.4484 40.7687C29.3095 39.7388 28.1519 38.5447 26.9972 37.2144C28.3718 35.552 29.7333 33.7137 31.0476 31.7426C33.4117 31.59 35.6845 31.33 37.8115 30.9708C38.3861 32.636 38.8415 34.2355 39.1639 35.7368ZM43.6124 28.032C42.151 28.5034 40.5381 28.9088 38.8087 29.2437C38.0562 27.2221 37.1451 25.1238 36.0951 23.0001C37.1451 20.8763 38.0563 18.7781 38.8087 16.7564C40.5381 17.0913 42.151 17.4967 43.6124 17.9681C47.9105 19.3547 50.4766 21.2357 50.4766 23.0001C50.4766 24.7644 47.9105 26.6454 43.6124 28.032Z" fill="black"/>
<path d="M26.0004 18.1676C23.3358 18.1676 21.168 20.3354 21.168 23C21.168 25.6647 23.3358 27.8325 26.0004 27.8325C28.665 27.8325 30.8329 25.6647 30.8329 23C30.8329 20.3354 28.665 18.1676 26.0004 18.1676ZM26.0004 26.3091C24.1758 26.3091 22.6914 24.8246 22.6914 23C22.6914 21.1755 24.1758 19.691 26.0004 19.691C27.825 19.691 29.3094 21.1755 29.3094 23C29.3094 24.8246 27.825 26.3091 26.0004 26.3091Z" fill="black"/>
</svg>
