<svg width="52" height="52" viewBox="0 0 52 52" fill="none" xmlns="http://www.w3.org/2000/svg">
<path d="M38.9954 36.5723C38.8264 36.5723 38.6541 36.5187 38.5079 36.4082C38.1487 36.1384 38.0772 35.6298 38.347 35.2706C40.3701 32.5813 41.4394 29.3751 41.4394 26C41.4394 24.9405 41.3305 23.8794 41.116 22.8475C41.025 22.4072 41.3077 21.9781 41.7465 21.8871C42.1836 21.7961 42.6159 22.0789 42.7069 22.5177C42.9441 23.6584 43.0644 24.83 43.0644 26C43.0644 29.7294 41.8814 33.2751 39.6454 36.2489C39.4845 36.4618 39.2407 36.5723 38.9954 36.5723Z" fill="black"/>
<path d="M10.101 30.199C9.72563 30.199 9.38763 29.9358 9.30638 29.5539C9.06263 28.3888 8.9375 27.1928 8.9375 26C8.9375 22.2869 10.1091 18.7558 12.3272 15.7918C12.5954 15.431 13.1056 15.3563 13.4648 15.6276C13.8239 15.8974 13.8986 16.406 13.6289 16.7651C11.622 19.4464 10.5625 22.6395 10.5625 26C10.5625 27.0806 10.6746 28.1645 10.8972 29.2191C10.9899 29.6579 10.7088 30.0885 10.27 30.1811C10.2131 30.1941 10.1562 30.199 10.101 30.199Z" fill="black"/>
<path d="M28.4375 34.125H23.5625C23.114 34.125 22.75 33.761 22.75 33.3125V29.25H18.6875C18.239 29.25 17.875 28.886 17.875 28.4375V23.5625C17.875 23.114 18.239 22.75 18.6875 22.75H22.75V18.6875C22.75 18.239 23.114 17.875 23.5625 17.875H28.4375C28.886 17.875 29.25 18.239 29.25 18.6875V22.75H33.3125C33.761 22.75 34.125 23.114 34.125 23.5625V28.4375C34.125 28.886 33.761 29.25 33.3125 29.25H29.25V33.3125C29.25 33.761 28.886 34.125 28.4375 34.125ZM24.375 32.5H27.625V28.4375C27.625 27.989 27.989 27.625 28.4375 27.625H32.5V24.375H28.4375C27.989 24.375 27.625 24.011 27.625 23.5625V19.5H24.375V23.5625C24.375 24.011 24.011 24.375 23.5625 24.375H19.5V27.625H23.5625C24.011 27.625 24.375 27.989 24.375 28.4375V32.5Z" fill="black"/>
<path d="M29.4791 48.75H20.9625C19.3749 48.75 17.8246 48.3958 16.354 47.697L10.6616 44.9313C9.20237 44.2309 7.64725 43.875 6.04663 43.875H2.4375C1.989 43.875 1.625 43.511 1.625 43.0625C1.625 42.614 1.989 42.25 2.4375 42.25H6.04663C7.89262 42.25 9.68337 42.6595 11.3685 43.4688L17.0592 46.2329C18.304 46.8228 19.6186 47.125 20.9625 47.125H29.3166L36.413 44.1968C36.413 44.1285 36.5089 43.4996 36.1969 42.965C35.7207 42.146 34.6206 42.12 33.787 42.2419C32.5764 42.4288 31.5754 42.7651 30.693 43.0625L30.3582 43.1746C29.9309 43.3128 29.4726 43.0869 29.3312 42.6595C29.1899 42.2338 29.4206 41.7739 29.8464 41.6325L30.1746 41.5236C31.1204 41.2051 32.1912 40.8444 33.5465 40.6364C36.8972 40.1489 37.7341 42.2419 37.9145 42.8935C38.2119 43.9676 37.9649 45.3115 37.037 45.6999L29.7879 48.6915C29.6904 48.7289 29.5848 48.75 29.4791 48.75Z" fill="black"/>
<path d="M18.9069 37.1751C18.6014 37.1751 18.3072 37.0013 18.1691 36.7055C16.5766 33.2784 12.4394 32.7876 9.36325 34.0633C9.26413 34.1039 9.1585 34.125 9.05125 34.125H2.4375C1.989 34.125 1.625 33.761 1.625 33.3125C1.625 32.864 1.989 32.5 2.4375 32.5H8.89363C13.2925 30.7531 17.8896 32.253 19.6446 36.0214C19.8331 36.4276 19.6576 36.9119 19.2498 37.102C19.1376 37.1508 19.0223 37.1751 18.9069 37.1751Z" fill="black"/>
<path d="M26.6085 44.8873C26.5028 44.8873 26.3972 44.8662 26.2981 44.8256L16.9933 40.963C16.579 40.7907 16.3823 40.3162 16.5546 39.9002C16.7268 39.4859 17.203 39.2908 17.6173 39.4615L26.1047 42.9845C26.4606 41.3091 25.5441 40.0058 23.3666 39.104L18.5842 37.1182C18.1698 36.946 17.9732 36.4698 18.1455 36.0555C18.3177 35.6411 18.7938 35.4445 19.2082 35.6167L23.989 37.6025C27.3381 38.9902 28.5666 41.4618 27.3592 44.382C27.2763 44.5819 27.1187 44.7411 26.9188 44.8223C26.8197 44.8662 26.7141 44.8873 26.6085 44.8873Z" fill="black"/>
<path d="M17.5014 11.4384C14.9453 11.4384 14.2465 9.69313 14.084 9.10813C13.7867 8.034 14.0337 6.69013 14.9615 6.30175L22.2107 3.31012C22.3082 3.27112 22.4138 3.25 22.5194 3.25H31.0344C32.622 3.25 34.1723 3.60425 35.6429 4.303L41.3353 7.06875C42.7962 7.76912 44.3513 8.125 45.9519 8.125H49.561C50.0095 8.125 50.3735 8.489 50.3735 8.9375C50.3735 9.386 50.0095 9.75 49.561 9.75H45.9519C44.1059 9.75 42.3152 9.3405 40.63 8.53125L34.9393 5.76875C33.6945 5.17725 32.3799 4.875 31.036 4.875H22.6819L15.5839 7.80325C15.5839 7.8715 15.488 8.50038 15.8 9.035C16.2778 9.854 17.3747 9.88 18.2099 9.75813C19.4205 9.57125 20.4215 9.23488 21.3039 8.9375L21.6387 8.82538C22.066 8.68563 22.5243 8.91313 22.6657 9.3405C22.807 9.76625 22.5763 10.2261 22.1505 10.3675L21.8223 10.4764C20.8765 10.7949 19.8057 11.1556 18.4504 11.3636C18.1092 11.4156 17.7923 11.4384 17.5014 11.4384Z" fill="black"/>
<path d="M39.4185 20.2232C36.3473 20.2232 33.614 18.6892 32.353 15.9787C32.1645 15.5724 32.34 15.0882 32.7479 14.898C33.1558 14.7095 33.6384 14.8867 33.8285 15.2929C35.4194 18.7184 39.555 19.2075 42.6344 17.9352C42.7335 17.8962 42.8391 17.875 42.9464 17.875H49.5601C50.0086 17.875 50.3726 18.239 50.3726 18.6875C50.3726 19.136 50.0086 19.5 49.5601 19.5H43.104C41.869 19.9892 40.6178 20.2232 39.4185 20.2232Z" fill="black"/>
<path d="M33.1043 16.445C33.0003 16.445 32.8946 16.4255 32.7923 16.3833L28.0115 14.3975C24.6624 13.0098 23.4339 10.5381 24.6413 7.61801C24.7241 7.41814 24.8818 7.25889 25.0816 7.17764C25.2815 7.09639 25.5041 7.09476 25.704 7.17764L35.0088 11.0403C35.4231 11.2125 35.6198 11.687 35.4475 12.103C35.2753 12.519 34.8024 12.7124 34.3848 12.5418L25.8974 9.01876C25.5415 10.6941 26.458 11.9974 28.6355 12.8993L33.4179 14.885C33.8323 15.0573 34.0289 15.5334 33.8566 15.9478C33.725 16.2565 33.4228 16.445 33.1043 16.445Z" fill="black"/>
<path d="M36.5863 39.0568C36.3783 39.0568 36.1703 38.9772 36.0111 38.8196C35.6942 38.5027 35.6942 37.9876 36.0111 37.6707C36.3296 37.3538 36.9 37.297 37.2168 37.6138C37.5337 37.9307 37.5906 38.389 37.2737 38.7058L37.16 38.8196C37.0023 38.9772 36.7943 39.0568 36.5863 39.0568Z" fill="black"/>
<path d="M15.4612 14.6818C15.2515 14.6818 15.0419 14.6006 14.8827 14.4397C14.5674 14.1196 14.5707 13.6061 14.8908 13.2908L15.0062 13.1771C15.3247 12.8618 15.8398 12.8651 16.155 13.1852C16.4703 13.5053 16.467 14.0188 16.1469 14.3341L16.0315 14.4478C15.8739 14.6038 15.6675 14.6818 15.4612 14.6818Z" fill="black"/>
</svg>
