<svg width="52" height="52" viewBox="0 0 52 52" fill="none" xmlns="http://www.w3.org/2000/svg">
<path d="M50.1853 8.94967C49.8115 8.55663 49.3311 8.34436 48.7989 8.33522C40.2728 8.12702 32.2585 5.21624 27.3621 0.547407C26.5984 -0.181811 25.402 -0.181811 24.6382 0.546392C19.7368 5.21624 11.7236 8.12702 3.2055 8.33522C2.66824 8.34436 2.18785 8.55764 1.8141 8.95069C1.44136 9.34272 1.2555 9.8353 1.2748 10.3736C1.47285 16.5283 2.20003 22.0939 3.43707 26.9151C4.62332 31.5382 6.3123 35.6139 8.45832 39.0294C10.5048 42.2865 13.0246 45.0369 15.9475 47.2062C18.6978 49.2466 21.8849 50.83 25.4253 51.9137C25.6173 51.9715 25.8062 52 25.9971 52C26.1891 52 26.381 51.9705 26.5791 51.9126C30.1145 50.83 33.3015 49.2466 36.0518 47.2062C38.9748 45.0379 41.4946 42.2865 43.54 39.0294C45.6861 35.6139 47.375 31.5382 48.5613 26.9151C49.7983 22.0939 50.5265 16.5283 50.7256 10.3685C50.7398 9.82717 50.5529 9.33663 50.1853 8.94967ZM26.1099 50.3577C26.0276 50.3821 25.9707 50.3821 25.8956 50.3598C11.1416 45.8423 3.61886 32.7458 2.89675 10.3177C2.89269 10.2131 2.9191 10.143 2.99019 10.0679C3.06433 9.99069 3.13238 9.9592 3.23902 9.95717C12.1542 9.73983 20.5727 6.66147 25.7575 1.72147C25.7575 1.72147 25.7575 1.72147 25.7585 1.72045C25.8255 1.65647 25.9128 1.62397 25.9992 1.62397C26.0855 1.62397 26.1728 1.65647 26.2409 1.72147C31.4226 6.66147 39.8401 9.74085 48.7644 9.95819C48.866 9.96022 48.934 9.99069 49.0082 10.0689C49.0671 10.1308 49.1057 10.1979 49.1016 10.3208C48.3775 32.7468 40.8547 45.8433 26.1099 50.3577ZM45.2189 12.7298C38.0313 11.9813 31.3789 9.53772 26.4867 5.84999C26.1972 5.63163 25.7981 5.63163 25.5086 5.84999C20.6194 9.53772 13.9681 11.9803 6.77949 12.7298C6.3448 12.7755 6.02488 13.1554 6.05332 13.5911C6.52457 20.6507 7.7291 26.4733 9.73597 31.3919C12.2913 37.6522 16.1628 42.2805 21.244 45.1496C22.6324 45.9326 24.1426 46.608 25.7311 47.1565C25.8164 47.1859 25.9068 47.2012 25.9961 47.2012C26.0855 47.2012 26.1749 47.1859 26.2602 47.1565C27.8446 46.6111 29.3548 45.9357 30.7482 45.1496C35.8304 42.2805 39.703 37.6522 42.2583 31.3919C44.2672 26.4722 45.4718 20.6497 45.943 13.5911C45.9735 13.1554 45.6525 12.7745 45.2189 12.7298ZM29.952 43.7348C28.7221 44.4285 27.3936 45.0318 25.9982 45.5274C24.5986 45.0287 23.2702 44.4265 22.0443 43.7348C13.5527 38.9411 8.8666 29.2926 7.73011 14.2563C14.675 13.4133 21.112 11.0358 25.9982 7.50647C30.8874 11.0358 37.3244 13.4133 44.2693 14.2563C43.1328 29.2926 38.4457 38.9411 29.952 43.7348ZM21.372 16.2083C21.372 17.6394 22.2099 18.8794 23.4215 19.4614H23.065C20.4569 19.4614 18.3353 21.583 18.3353 24.1912V28.0434C18.3353 29.384 19.3753 30.486 20.6905 30.5865V36.8499C20.6905 38.2565 21.8351 39.4012 23.2407 39.4012C23.9121 39.4012 24.5235 39.1401 24.9795 38.7146C25.4355 39.1401 26.0469 39.4012 26.7182 39.4012C28.1259 39.4012 29.2715 38.2565 29.2715 36.8499V30.5865C29.5051 30.5683 29.7296 30.5185 29.9408 30.4423C29.9408 30.4535 29.9388 30.4647 29.9388 30.4758V31.4376C29.9388 31.8865 30.3024 32.2491 30.7503 32.2491C31.1992 32.2491 31.5618 31.8855 31.5618 31.4376V30.4758C31.5618 30.3479 31.6714 30.2402 31.8004 30.2402C31.9274 30.2402 32.0391 30.3499 32.0391 30.4758V38.5887C32.0391 39.0376 32.4027 39.4001 32.8506 39.4001C33.2995 39.4001 33.6621 39.0365 33.6621 38.5887V30.4758C33.6621 29.4501 32.8262 28.6162 31.7994 28.6162C31.7161 28.6162 31.6349 28.6233 31.5546 28.6345C31.5993 28.4446 31.6237 28.2465 31.6237 28.0434V24.1922C31.6237 21.584 29.5021 19.4624 26.8939 19.4624H26.5364C27.7481 18.8794 28.587 17.6404 28.587 16.2094C28.587 14.2208 26.9671 12.6019 24.9764 12.6019C22.9899 12.6008 21.372 14.2198 21.372 16.2083ZM30.0028 24.1922V28.0444C30.0028 28.5553 29.5874 28.9717 29.0755 28.9717C29.044 28.9717 29.0136 28.9697 28.9831 28.9666C28.979 28.9666 28.975 28.9656 28.9709 28.9646C28.9435 28.9615 28.9171 28.9575 28.8907 28.9524C28.8886 28.9524 28.8866 28.9514 28.8836 28.9504C28.8561 28.9443 28.8287 28.9382 28.8023 28.929C28.7993 28.928 28.7962 28.927 28.7932 28.926C28.4194 28.8072 28.1472 28.4558 28.1472 28.0424V24.7305C28.1472 24.2815 27.7836 23.919 27.3357 23.919C26.8878 23.919 26.5243 24.2826 26.5243 24.7305V28.0444C26.5243 28.9219 26.9701 29.6979 27.6475 30.1569V36.8509C27.6475 37.3618 27.2301 37.7782 26.7172 37.7782C26.2064 37.7782 25.79 37.3628 25.79 36.8509C25.79 36.8418 25.7889 36.8337 25.7889 36.8245C25.7889 36.8154 25.79 36.8073 25.79 36.7981V29.9924C25.79 29.5435 25.4264 29.1809 24.9785 29.1809C24.5306 29.1809 24.167 29.5445 24.167 29.9924V36.7981C24.167 36.8073 24.168 36.8154 24.168 36.8245C24.168 36.8337 24.167 36.8418 24.167 36.8509C24.167 37.3618 23.7516 37.7782 23.2397 37.7782C22.7289 37.7782 22.3125 37.3628 22.3125 36.8509V30.1569C22.9899 29.6979 23.4357 28.9219 23.4357 28.0444V24.7305C23.4357 24.2815 23.0721 23.919 22.6243 23.919C22.1764 23.919 21.8128 24.2826 21.8128 24.7305V28.0444C21.8128 28.4558 21.5436 28.8041 21.1729 28.925C21.1668 28.927 21.1607 28.929 21.1546 28.9311C21.1343 28.9372 21.113 28.9422 21.0927 28.9473C21.0835 28.9494 21.0744 28.9514 21.0653 28.9534C21.046 28.9575 21.0267 28.9595 21.0074 28.9626C20.9972 28.9636 20.986 28.9656 20.9759 28.9666C20.9464 28.9697 20.917 28.9707 20.8865 28.9707C20.3757 28.9707 19.9593 28.5553 19.9593 28.0434V24.1922C19.9593 22.4788 21.3527 21.0854 23.066 21.0854H26.898C28.6093 21.0854 30.0028 22.4788 30.0028 24.1922ZM26.965 16.2083C26.965 17.3022 26.0743 18.1919 24.9785 18.1919C23.8846 18.1919 22.995 17.3022 22.995 16.2083C22.995 15.1145 23.8846 14.2248 24.9785 14.2248C26.0743 14.2248 26.965 15.1145 26.965 16.2083Z" fill="black"/>
</svg>
