<svg width="50" height="50" viewBox="0 0 50 50" fill="none" xmlns="http://www.w3.org/2000/svg">
<path d="M39.8139 24.4816L40.7564 25.5866L41.9134 24.4459L41.1074 23.505L40.3355 22.3447C40.0885 21.9694 39.5799 21.8702 39.211 22.1172C38.8373 22.3659 38.7349 22.8696 38.9835 23.2434L39.8139 24.4816Z" fill="black"/>
<path d="M32.9445 33.2956L30.9116 31.253C30.5947 30.9345 30.0796 30.9345 29.7627 31.2498C29.4442 31.5666 29.4442 32.0818 29.7595 32.3986L31.7875 34.4364L32.9445 33.2956Z" fill="black"/>
<path d="M43.6996 49.375C43.4916 49.375 43.2836 49.2954 43.1244 49.1378L30.1244 36.1378C29.8075 35.8209 29.8075 35.3057 30.1244 34.9889L42.3119 22.8014C42.6287 22.4845 43.1439 22.4845 43.4608 22.8014L49.1483 28.4889C49.4651 28.8058 49.4651 29.3209 49.1483 29.6378C48.8314 29.9546 48.3162 29.9546 47.9994 29.6378L42.8871 24.5255L31.8485 35.5625L44.2733 47.9873C44.5901 48.3041 44.5901 48.8193 44.2733 49.1361C44.1156 49.2954 43.9076 49.375 43.6996 49.375Z" fill="black"/>
<path d="M6.31128 49.375C6.10328 49.375 5.89528 49.2954 5.73603 49.1378C5.41916 48.8209 5.41916 48.3058 5.73603 47.9889L18.1608 35.5642L7.12378 24.5239L2.01153 29.6362C1.69466 29.953 1.17953 29.953 0.862656 29.6362C0.545781 29.3193 0.545781 28.8042 0.862656 28.4873L6.55016 22.7998C6.86703 22.4829 7.38216 22.4829 7.69903 22.7998L19.8865 34.9873C20.2034 35.3042 20.2034 35.8193 19.8865 36.1362L6.88653 49.1362C6.72728 49.2954 6.51928 49.375 6.31128 49.375Z" fill="black"/>
<path d="M20.9497 3.53704L21.187 3.77429C22.2432 3.35504 23.1857 3.09016 23.4603 3.08366C23.9803 3.14216 24.2858 2.74566 24.3005 2.29879C24.3151 1.85029 23.9625 1.47491 23.5156 1.46029C22.4821 1.43266 20.4005 2.32154 19.536 2.70666C19.4108 2.76191 19.3117 2.85454 19.2305 2.96016C19.8431 2.89354 20.4785 3.06579 20.9497 3.53704Z" fill="black"/>
<path d="M10.5894 23.2011C10.6593 23.1231 10.7129 23.0321 10.7487 22.9346L11.2069 21.6525C11.358 21.23 11.1387 20.7653 10.7145 20.6141C10.292 20.4614 9.82728 20.684 9.67616 21.1049L9.26991 22.2391L7.67578 24.0299L8.83441 25.1723L10.5894 23.2011Z" fill="black"/>
<path d="M39.8544 15.7391C39.3214 14.9965 38.5219 14.5074 37.6347 14.3693C38.1076 13.2854 38.0263 12.0163 37.3357 11.0608C36.7588 10.2596 35.8716 9.75101 34.8998 9.66489C35.2021 8.67689 35.0672 7.58976 34.4594 6.74314C33.9232 6.00214 33.1237 5.51139 32.2364 5.37326C32.7093 4.28939 32.6264 3.02026 31.9358 2.06314C31.3541 1.25389 30.4554 0.743635 29.4723 0.665635C28.4908 0.584385 27.5256 0.94026 26.8219 1.64389C25.6779 2.80576 24.0806 4.41939 22.9544 5.54551L23.9473 6.53839C24.0026 6.59364 24.0253 6.66839 24.0724 6.72851C24.9044 5.90464 26.1216 4.66801 27.9741 2.78951C28.3364 2.42876 28.8369 2.24676 29.3407 2.28739C29.8542 2.32801 30.3076 2.58801 30.6163 3.01539C31.1006 3.68814 30.9787 4.68426 30.3287 5.33264L29.3439 6.31576C29.0271 6.63264 29.0271 7.14776 29.3439 7.46626C29.6608 7.78314 30.1759 7.78314 30.4928 7.46626C30.8552 7.10714 31.3573 6.92514 31.8594 6.96414C32.3746 7.00639 32.8296 7.26476 33.1367 7.69376C33.6209 8.36651 33.4974 9.36264 32.8474 10.011L32.2234 10.6366C31.9066 10.9535 31.9066 11.4686 32.2234 11.7855C32.5403 12.1008 33.0554 12.1024 33.3723 11.7855C33.7331 11.4248 34.2271 11.2476 34.7357 11.2834C35.2508 11.3256 35.7058 11.584 36.0146 12.013C36.4988 12.6858 36.3753 13.6819 35.7253 14.3303L34.7422 15.3134C34.5829 15.4726 34.5049 15.6806 34.5049 15.8886C34.5049 16.0966 34.5846 16.3046 34.7422 16.4639C35.0591 16.7808 35.5742 16.7808 35.8911 16.4639C36.2518 16.1048 36.7344 15.9244 37.2561 15.9618C37.7696 16.0024 38.2246 16.2624 38.5333 16.6914C39.0176 17.3641 38.8941 18.3603 38.2441 19.0086L30.4229 26.8298C29.7258 27.5269 28.3316 28.3475 27.3566 28.6286L21.0109 30.6241C20.2098 30.8776 19.4737 31.3213 18.8806 31.9095L17.2734 33.5069L18.4304 34.6493L20.0262 33.0633C20.4357 32.657 20.9427 32.3499 21.4984 32.176L27.8262 30.187C29.0384 29.8376 30.6846 28.8675 31.5718 27.9819L39.3929 20.1608C40.6036 18.9501 40.8002 17.0521 39.8544 15.7391Z" fill="black"/>
<path d="M12.9452 19.4132C12.1619 19.4132 11.4226 19.1077 10.8717 18.5536L9.46281 17.1447C8.90706 16.5906 8.60156 15.8529 8.60156 15.068C8.60156 14.2847 8.90706 13.5486 9.46281 12.9961C10.5646 11.8895 12.5016 11.8895 13.6098 12.9961C13.9267 13.313 13.9267 13.8281 13.6098 14.145C13.2929 14.4619 12.7778 14.4619 12.4609 14.145C11.9637 13.651 11.1041 13.651 10.6101 14.145C10.3631 14.3936 10.2266 14.7202 10.2266 15.0696C10.2266 15.419 10.3631 15.7489 10.6101 15.9959L12.0189 17.4064C12.5129 17.9004 13.3726 17.9004 13.8698 17.4064C14.1867 17.0895 14.7018 17.0895 15.0187 17.4064C15.3356 17.7232 15.3356 18.2384 15.0187 18.5552C14.4662 19.1077 13.7284 19.4132 12.9452 19.4132Z" fill="black"/>
<path d="M16.4775 16.9416C15.6942 16.9416 14.9565 16.6361 14.4023 16.082L11.4026 13.0822C10.8485 12.5281 10.543 11.792 10.543 11.0071C10.543 10.2222 10.8485 9.48611 11.401 8.93361C12.506 7.82698 14.4413 7.82698 15.5496 8.93361C15.8665 9.25048 15.8665 9.76561 15.5496 10.0825C15.2327 10.3994 14.7176 10.3994 14.4007 10.0825C13.9035 9.58686 13.0438 9.59011 12.5498 10.0825C12.3028 10.3295 12.168 10.6577 12.168 11.0071C12.168 11.3565 12.3028 11.6847 12.5498 11.9334L15.5496 14.9331C16.0452 15.4287 16.9065 15.4287 17.4021 14.9331C17.719 14.6146 18.2341 14.6162 18.551 14.9315C18.8678 15.2484 18.8678 15.7635 18.551 16.0804C17.9968 16.6361 17.2607 16.9416 16.4775 16.9416Z" fill="black"/>
<path d="M20.0917 14.5708C20.09 14.5708 20.09 14.5708 20.0917 14.5708C19.3068 14.5708 18.569 14.2636 18.0165 13.7095L13.9557 9.64863C12.8117 8.50463 12.8117 6.64238 13.9557 5.49838C15.0997 4.35438 16.9619 4.35601 18.1059 5.49838C18.4228 5.81526 18.4228 6.33038 18.1059 6.64726C17.789 6.96576 17.2739 6.96413 16.957 6.64888C16.4468 6.14026 15.6164 6.13701 15.1045 6.64888C14.8575 6.89588 14.7227 7.22413 14.7227 7.57513C14.7227 7.92613 14.8575 8.25276 15.1045 8.50138L19.167 12.5623C19.414 12.8109 19.7423 12.9458 20.09 12.9474C20.4394 12.9474 20.7693 12.8109 21.0163 12.5639C21.3332 12.2454 21.8483 12.247 22.1652 12.5623C22.482 12.8791 22.482 13.3943 22.1652 13.7111C21.6127 14.2636 20.8765 14.5691 20.0917 14.5708Z" fill="black"/>
<path d="M22.4516 10.9698C21.6992 10.9698 20.9485 10.6838 20.3765 10.1134L17.3751 7.11366C16.2343 5.96804 16.2343 4.10741 17.3751 2.96504C18.4801 1.85516 20.4138 1.85516 21.5253 2.96504L24.1107 5.55041C24.4276 5.86729 24.4276 6.38241 24.1107 6.69929C23.7938 7.01616 23.2787 7.01616 22.9618 6.69929L20.3765 4.11391C19.8678 3.60366 19.0375 3.60204 18.524 4.11391C18.0153 4.62416 18.0153 5.45454 18.5256 5.96641L21.5253 8.96454C22.034 9.47316 22.8643 9.47479 23.3778 8.96454C23.6947 8.64766 24.2098 8.64766 24.5267 8.96454C24.8436 9.28141 24.8436 9.79654 24.5267 10.1134C23.9531 10.6822 23.2023 10.9698 22.4516 10.9698Z" fill="black"/>
</svg>
