<svg width="52" height="52" viewBox="0 0 52 52" fill="none" xmlns="http://www.w3.org/2000/svg">
<path d="M34.5108 13.3293C34.1468 13.3553 33.8088 13.546 33.6788 13.8927C33.0722 15.5133 30.6195 16.5793 28.0282 17.6973C23.1055 19.8293 16.3888 22.7327 18.2868 31.9713C16.9955 33.384 15.9468 35.1693 15.4355 37.6393C15.3402 38.1073 15.6435 38.5667 16.1115 38.662C16.1722 38.6707 16.2328 38.6793 16.2848 38.6793C16.6835 38.6793 17.0475 38.402 17.1342 37.986C17.5502 35.9927 18.3388 34.528 19.3615 33.3407C20.4448 34.034 22.6808 35.2127 25.4715 35.2127C27.4648 35.2127 29.7442 34.6147 32.0842 32.8207C39.5635 27.0833 35.4815 14.456 35.3082 13.9187C35.2042 13.572 34.8835 13.3293 34.5108 13.3293ZM31.0442 31.4427C26.5028 34.9267 22.3688 33.1587 20.6355 32.1013C21.7188 31.174 22.9495 30.4113 24.2148 29.64C26.7368 28.0887 29.3455 26.4853 30.5415 23.3827C30.7148 22.932 30.4895 22.438 30.0475 22.2647C29.5968 22.0913 29.1028 22.3167 28.9295 22.7587C27.9415 25.3153 25.6882 26.6933 23.3135 28.158C22.1608 28.8687 20.9475 29.614 19.8208 30.5327C18.8935 23.5473 23.8768 21.3807 28.7302 19.2833C30.8362 18.3733 32.8555 17.498 34.1468 16.2327C34.9355 19.7513 36.0188 27.6207 31.0442 31.4427Z" fill="black"/>
<path d="M25.9987 4.33331C14.0474 4.33331 4.33203 14.0486 4.33203 26C4.33203 37.9513 14.0474 47.6666 25.9987 47.6666C37.95 47.6666 47.6654 37.9513 47.6654 26C47.6654 14.0486 37.95 4.33331 25.9987 4.33331ZM25.9987 45.9333C15.0094 45.9333 6.06536 36.9893 6.06536 26C6.06536 15.0106 15.0094 6.06665 25.9987 6.06665C36.988 6.06665 45.932 15.0106 45.932 26C45.932 36.9893 36.988 45.9333 25.9987 45.9333Z" fill="black"/>
</svg>
