<svg width="16" height="14" viewBox="0 0 16 14" fill="none" xmlns="http://www.w3.org/2000/svg">
<path d="M7.38397 13.1789C7.34153 13.1789 7.29954 13.1701 7.26066 13.1531C7.22178 13.1361 7.18683 13.1112 7.15803 13.08L1.06612 6.49033C1.02551 6.4464 0.99859 6.39158 0.988651 6.33259C0.978712 6.27359 0.986187 6.21298 1.01016 6.15817C1.03414 6.10336 1.07357 6.05672 1.12364 6.02397C1.17371 5.99122 1.23223 5.97378 1.29206 5.97378H4.22437C4.26839 5.97379 4.31191 5.98324 4.35197 6.00149C4.39204 6.01974 4.42772 6.04638 4.45661 6.0796L6.49255 8.42187C6.71258 7.95154 7.13852 7.1684 7.88597 6.21412C8.99095 4.80335 11.0463 2.72855 14.5627 0.855565C14.6307 0.819372 14.7097 0.809979 14.7843 0.82924C14.8588 0.848501 14.9235 0.895016 14.9654 0.959601C15.0073 1.02419 15.0235 1.10215 15.0108 1.17809C14.998 1.25403 14.9573 1.32243 14.8966 1.36978C14.8831 1.38027 13.5273 2.44797 11.967 4.40363C10.5309 6.20332 8.62191 9.14609 7.68255 12.9452C7.66605 13.0119 7.62767 13.0712 7.57354 13.1136C7.5194 13.156 7.45263 13.179 7.38387 13.179L7.38397 13.1789Z" fill="url(#paint0_linear_119_175)"/>
<defs>
<linearGradient id="paint0_linear_119_175" x1="15.015" y1="6.99923" x2="0.984375" y2="6.99923" gradientUnits="userSpaceOnUse">
<stop stop-color="#1B95F8"/>
<stop offset="1" stop-color="#9B00FF"/>
</linearGradient>
</defs>
</svg>
