<svg width="68" height="68" viewBox="0 0 68 68" fill="none" xmlns="http://www.w3.org/2000/svg">
<g clip-path="url(#clip0_17_186)">
<path d="M66.9258 28.0947L64.6624 26.2067C63.5311 25.2635 61.919 25.2985 60.834 26.2079C60.036 25.5712 59.4428 24.6898 59.1563 23.7079L57.1519 16.8444C56.3713 14.175 54.9293 11.7146 52.9816 9.72893L44.555 1.14424C43.4217 -0.0107033 41.6757 -0.326171 40.2105 0.358958C38.218 1.28995 37.4204 3.71061 38.4679 5.64433L40.2911 9.00675C38.0327 9.11766 36.2075 10.9731 36.2075 13.2851L36.6674 21.0322C35.6281 21.1616 34.6786 21.6788 33.9998 22.4765C33.321 21.6788 32.3716 21.1615 31.3322 21.0322L31.7921 13.2851C31.7921 10.9399 29.9291 9.11394 27.7096 9.00462L29.5319 5.64393C30.6076 3.65841 29.7316 1.26644 27.7894 0.359091C26.3238 -0.326171 24.5779 -0.0105705 23.4447 1.14411L15.0178 9.72907C13.0703 11.7146 11.6283 14.175 10.8477 16.8444L10.5103 17.9987C10.356 18.5268 10.6589 19.08 11.1871 19.2344C11.7149 19.389 12.2684 19.0858 12.4228 18.5576L12.7602 17.4035C13.449 15.0478 14.7216 12.8764 16.44 11.1246L24.8667 2.53973C25.409 1.9873 26.2444 1.83627 26.9457 2.16409C27.9019 2.6108 28.2829 3.76654 27.7801 4.69447L23.7937 12.0461C22.2801 11.9417 20.7774 12.6731 19.9507 13.9883L16.2652 19.8519C15.9725 20.3177 16.1127 20.9327 16.5786 21.2255C17.0444 21.5182 17.6594 21.378 17.9521 20.9121L21.6375 15.0486C22.5511 13.5953 24.7445 13.7079 25.479 15.2902C25.7525 15.8793 25.752 16.5543 25.4777 17.1421L21.4252 25.8235C20.3261 28.176 18.6243 30.2111 16.5035 31.709L13.5559 33.7913L8.48082 27.7067C9.56112 26.8202 10.3641 25.61 10.7564 24.2659L11.1151 23.0359C11.269 22.5077 10.9656 21.9547 10.4375 21.8008C9.90913 21.6466 9.35629 21.9501 9.20235 22.4783L8.84384 23.7081C8.55733 24.6897 7.96412 25.5711 7.16609 26.2079C6.07915 25.2969 4.46702 25.2652 3.33744 26.2068L1.07432 28.0947C0.391578 28.664 0 29.5006 0 30.3897V45.0334C0 47.5833 2.96725 48.9429 4.90283 47.3285L14.3702 39.4321C15.5996 38.4056 15.7914 36.5935 14.8312 35.3303C17.6668 33.3271 18.4819 32.8203 19.7022 31.6305L20.7087 38.1733C20.8724 39.2358 20.6816 40.3432 20.1721 41.2909L19.9383 41.7248C18.4529 41.0933 16.7202 41.7605 16.0483 43.2375L6.71567 63.7748C5.81668 65.753 7.26358 67.9999 9.43652 67.9999H21.7892C22.9583 67.9999 24.0264 67.3121 24.51 66.2477L31.7271 50.3634C32.3409 49.0136 31.8617 47.4916 30.7491 46.698C32.8469 43.0273 33.3637 42.2591 34.0001 40.4825C34.6095 42.1839 34.9843 42.7316 37.251 46.698C36.1411 47.4899 35.658 49.0116 36.273 50.3632L43.4902 66.2496C43.9752 67.3129 45.0431 68.0001 46.2111 68.0001H52.632C53.1822 68.0001 53.6282 67.554 53.6282 67.0038C53.6282 66.4537 53.1822 66.0076 52.632 66.0076H46.211C45.8214 66.0076 45.4649 65.7781 45.3035 65.4242L38.0867 49.5388C37.8602 49.0409 38.076 48.4493 38.5817 48.2202L48.818 43.5676C49.3186 43.3407 49.9104 43.5627 50.1375 44.062L59.4703 64.6006C59.771 65.2613 59.2899 66.0076 58.5639 66.0076H57.2808C56.7306 66.0076 56.2845 66.4537 56.2845 67.0038C56.2845 67.554 56.7306 68.0001 57.2808 68.0001H58.5639C60.7368 68.0001 62.1841 65.7534 61.2839 63.7757L51.9513 43.2374C51.2797 41.7609 49.5474 41.0938 48.0614 41.725L47.828 41.292C47.3181 40.3435 47.1274 39.2361 47.2911 38.1733L48.2978 31.6309C49.5539 32.8555 50.3875 33.3657 53.1689 35.3301C52.2084 36.5929 52.4001 38.4056 53.6297 39.4324L63.097 47.3286C65.0401 48.9493 68 47.5709 68 45.0336V30.3897C68 29.5006 67.6084 28.664 66.9258 28.0947ZM13.0933 37.9026L3.62661 45.7983C2.97788 46.3393 1.99242 45.878 1.99242 45.0332V30.3897C1.99242 30.0934 2.12286 29.8146 2.35053 29.6248L4.61339 27.7371C5.03672 27.3842 5.66433 27.4404 6.01712 27.8639L13.2201 36.4986C13.5719 36.9206 13.515 37.5506 13.0933 37.9026ZM29.9133 49.5386L22.6961 65.4233C22.5349 65.7781 22.1789 66.0074 21.7892 66.0074H9.43639C8.71075 66.0074 8.22925 65.2597 8.52944 64.599L17.8622 44.0621C18.0894 43.5626 18.6812 43.3403 19.1811 43.5669L29.4193 48.2206C29.9206 48.4476 30.1413 49.0377 29.9133 49.5386ZM31.0351 42.1817L28.9552 45.821L21.7574 42.5495L21.9266 42.2353C22.6405 40.908 22.9072 39.3578 22.6782 37.8703L21.4583 29.6257C22.1457 28.7045 22.7418 27.7139 23.2311 26.6665L27.2839 17.9847C28.1799 16.0647 27.4956 13.786 25.7214 12.6717L26.5078 11.2217C27.9857 10.5068 29.781 11.5531 29.7999 13.2578L29.3217 21.281C27.906 21.8267 26.854 23.1251 26.6613 24.6665L25.8023 31.5387C25.7282 32.1315 26.1898 32.6586 26.792 32.6586C27.2872 32.6586 27.7162 32.2898 27.7793 31.7857L28.6383 24.9136C28.7572 23.9628 29.4988 23.1864 30.4416 23.0256C31.8045 22.7931 33.0039 23.8507 33.0039 25.185V34.7672C33.0039 37.3639 32.323 39.9279 31.0351 42.1817ZM46.5745 25.824L45.7696 24.0986C45.537 23.6001 44.9446 23.3843 44.4456 23.6169C43.947 23.8495 43.7313 24.4423 43.9639 24.941C44.8301 26.7975 45.3116 27.9774 46.5421 29.6261L45.322 37.8701C45.0928 39.3578 45.3597 40.9081 46.0738 42.2361L46.2426 42.5495L39.0448 45.821L36.9651 42.1818C35.6772 39.9279 34.9963 37.364 34.9963 34.7675V25.1852C34.9963 23.8515 36.1937 22.7945 37.5577 23.0256C37.558 23.0256 37.5583 23.0257 37.5585 23.0257C38.5015 23.1866 39.2429 23.9629 39.3618 24.9137L40.2208 31.7859C40.2838 32.2898 40.7129 32.6587 41.2081 32.6587C41.8104 32.6587 42.272 32.1316 42.1978 31.5388L41.3388 24.6667C41.1461 23.1252 40.0941 21.8268 38.6784 21.2811L38.2002 13.2579C38.219 11.5737 39.9744 10.5291 41.4427 11.1978C41.4581 11.2048 41.4738 11.2101 41.4895 11.2162L42.2787 12.6717C40.5076 13.7838 39.819 16.0619 40.7164 17.9847L41.9955 20.725C42.2282 21.2236 42.8212 21.4389 43.3196 21.2064C43.8181 20.9736 44.0335 20.3808 43.8009 19.8823L42.5218 17.1421C42.2475 16.5543 42.2472 15.8789 42.521 15.2891C43.2569 13.704 45.45 13.5976 46.362 15.0484L50.0475 20.912C50.3403 21.3778 50.9551 21.5181 51.421 21.2254C51.8869 20.9325 52.0271 20.3176 51.7344 19.8518L48.0489 13.9882C47.2223 12.6731 45.7196 11.9416 44.2059 12.046L40.2196 4.69474C39.7166 3.76627 40.0974 2.6108 41.0542 2.16383C41.7554 1.83614 42.5907 1.98703 43.1329 2.53973L51.5593 11.1242C53.278 12.8763 54.5506 15.0476 55.2394 17.4031L57.2437 24.2661C57.6359 25.6099 58.4388 26.82 59.5192 27.7066L54.4438 33.7908L51.4957 31.7087C49.3752 30.2111 47.6734 28.176 46.5745 25.824ZM66.0076 45.0334C66.0076 45.8782 65.0221 46.3395 64.3733 45.7983L54.9066 37.9026C54.4848 37.5505 54.428 36.9205 54.7795 36.4988L61.983 27.8632C62.3354 27.4404 62.9634 27.3842 63.3862 27.7367L65.6495 29.6246C65.877 29.8144 66.0074 30.0931 66.0074 30.3896V45.0334H66.0076Z" fill="#22282F"/>
</g>
<defs>
<clipPath id="clip0_17_186">
<rect width="68" height="68" fill="white"/>
</clipPath>
</defs>
</svg>
