<svg width="68" height="68" viewBox="0 0 68 68" fill="none" xmlns="http://www.w3.org/2000/svg">
<path d="M8.07593 30.3172L10.0449 30.0143C9.85695 28.7934 9.76172 27.5427 9.76172 26.2969C9.76172 12.9318 20.6349 2.05859 34 2.05859C34.7407 2.05859 35.4876 2.09233 36.2204 2.15887L36.4006 0.174914C35.6082 0.10293 34.8006 0.0664062 34 0.0664062C19.5365 0.0664062 7.76953 11.8333 7.76953 26.2969C7.76953 27.6437 7.87259 28.9964 8.07593 30.3172Z" fill="#22282F"/>
<path d="M56.8465 34.4126C55.1125 39.2934 51.7752 43.5734 47.4494 46.4641C46.0471 47.401 44.891 48.6134 44.0318 50.0038H23.9685C23.1093 48.6132 21.9532 47.401 20.551 46.4641C15.4222 43.0368 11.8209 37.8615 10.4106 31.8913L8.47168 32.3493C9.99823 38.8113 13.8949 44.4122 19.444 48.1204C22.1134 49.9043 23.7071 52.8927 23.7071 56.1146V60.2969C23.7071 62.1987 25.1686 63.765 27.0274 63.9334V64.2812C27.0274 66.2952 28.6658 67.9336 30.6798 67.9336H37.3204C39.3343 67.9336 40.9728 66.2952 40.9728 64.2812V63.9334C42.8315 63.765 44.2931 62.1987 44.2931 60.2969V56.1146C44.2931 52.8928 45.8867 49.9044 48.5562 48.1206C53.2363 44.9932 56.8472 40.3619 58.7238 35.0798L56.8465 34.4126ZM42.3009 60.2969C42.3009 61.2124 41.5562 61.957 40.6407 61.957H33.6258V63.9492H38.9806V64.2812C38.9806 65.1967 38.2359 65.9414 37.3204 65.9414H30.6798C29.7643 65.9414 29.0196 65.1967 29.0196 64.2812V63.9492H31.6336V61.957H27.3595C26.444 61.957 25.6993 61.2124 25.6993 60.2969V59.9648H42.3009V60.2969ZM42.3009 56.1146V57.9727H25.6993V56.1146C25.6993 56.0699 25.6977 56.0252 25.6972 55.9805H42.3029C42.3025 56.0252 42.3009 56.0697 42.3009 56.1146ZM42.4957 53.9883H25.5045C25.3782 53.3052 25.1912 52.6389 24.9483 51.9961H43.0519C42.809 52.6389 42.622 53.3052 42.4957 53.9883Z" fill="#22282F"/>
<path d="M58.2385 26.2969C58.2385 28.4298 57.9614 30.5458 57.4148 32.5861L59.339 33.1017C59.9307 30.8934 60.2307 28.604 60.2307 26.297C60.2307 20.0702 58.0106 14.0339 53.9793 9.29966C49.9935 4.61922 44.4796 1.47382 38.4531 0.443062L38.1172 2.40669C49.7764 4.40087 58.2387 14.4481 58.2385 26.2969Z" fill="#22282F"/>
<path d="M0 25.6992H5.04688V27.6914H0V25.6992Z" fill="#22282F"/>
<path d="M62.9531 25.6992H68V27.6914H62.9531V25.6992Z" fill="#22282F"/>
<path d="M1.71094 37.3987L6.455 35.6727L7.13633 37.5453L2.39227 39.2714L1.71094 37.3987Z" fill="#22282F"/>
<path d="M60.8848 15.8643L65.629 14.1382L66.3103 16.0109L61.5661 17.7369L60.8848 15.8643Z" fill="#22282F"/>
<path d="M7.32422 47.7822L11.1901 44.537L12.4711 46.0631L8.6052 49.3082L7.32422 47.7822Z" fill="#22282F"/>
<path d="M55.54 7.31229L59.4059 4.06715L60.6869 5.59316L56.821 8.8383L55.54 7.31229Z" fill="#22282F"/>
<path d="M60.876 37.5146L61.5573 35.6419L66.3015 37.368L65.6202 39.2406L60.876 37.5146Z" fill="#22282F"/>
<path d="M1.71387 16.0014L2.3952 14.1288L7.13926 15.8548L6.45793 17.7275L1.71387 16.0014Z" fill="#22282F"/>
<path d="M55.5488 46.0808L56.8298 44.5548L60.6957 47.8L59.4147 49.326L55.5488 46.0808Z" fill="#22282F"/>
<path d="M7.31641 5.60487L8.59738 4.07885L12.4633 7.32399L11.1823 8.85001L7.31641 5.60487Z" fill="#22282F"/>
<path d="M30.6446 8.96484C28.331 8.96484 26.2416 10.2898 25.2381 12.3277C23.0132 12.5176 21.2605 14.3857 21.2605 16.6547C21.2605 16.6983 21.2613 16.7418 21.2629 16.7854C18.8124 17.5686 17.0664 19.8755 17.0664 22.5117C17.0664 24.2084 17.7659 25.7814 18.9821 26.9067C18.2881 27.8016 17.9052 28.8963 17.9052 30.0422C17.9052 31.6543 18.6552 33.1428 19.9122 34.1133C19.6953 34.6886 19.5829 35.2933 19.5829 35.8992C19.5829 38.4111 21.4168 40.5403 23.8527 40.9781C25.0686 43.0896 27.3477 44.4258 29.806 44.4258C31.3451 44.4258 32.8038 43.9245 34.0001 42.9982C35.1965 43.9245 36.6551 44.4258 38.1942 44.4258C40.6526 44.4258 42.9315 43.0894 44.1474 40.9781C46.5835 40.5403 48.4172 38.4111 48.4172 35.8992C48.4172 35.2933 48.3047 34.6886 48.088 34.1133C49.3448 33.1428 50.0949 31.6541 50.0949 30.0422C50.0949 28.8964 49.7118 27.8016 49.018 26.9067C50.2342 25.7814 50.9337 24.2085 50.9337 22.5117C50.9337 19.8754 49.188 17.5686 46.7372 16.7854C46.7388 16.7417 46.7396 16.6983 46.7396 16.6547C46.7396 14.3856 44.9872 12.5173 42.762 12.3277C41.7584 10.2898 39.6691 8.96484 37.3554 8.96484C36.1545 8.96484 34.9896 9.32384 34.0001 9.9883C33.0105 9.32384 31.8455 8.96484 30.6446 8.96484ZM33.0038 41.2371C32.1159 42.0107 30.995 42.4336 29.8058 42.4336C28.3941 42.4336 27.0657 41.8123 26.1526 40.781C26.6791 40.5967 27.2471 40.2897 27.7356 39.7789C28.6067 38.8681 28.9701 37.5846 28.8158 35.9642L26.8325 36.153C26.9289 37.1648 26.7514 37.9184 26.3048 38.3925C25.6855 39.0505 24.6712 39.0615 24.5489 39.0598C22.8804 38.9425 21.5749 37.5565 21.5749 35.8992C21.5749 35.3302 21.7328 34.7807 22.0441 34.2655L22.597 33.3509L21.6458 32.8637C20.5672 32.3112 19.8972 31.2301 19.8972 30.0422C19.8972 29.1033 20.3234 28.2175 21.0671 27.6031C21.2367 27.5027 22.085 27.0438 23.0365 27.2916C23.9073 27.5185 24.6847 28.2771 25.347 29.5467L27.1133 28.6252C26.1711 26.8195 24.9557 25.719 23.5008 25.3542C22.283 25.0488 21.2055 25.3551 20.5575 25.6352C19.6104 24.875 19.0583 23.7417 19.0583 22.5117C19.0583 20.5199 20.5507 18.8093 22.5299 18.5325L22.5359 18.5317C22.6216 18.5203 24.5496 18.2911 25.7639 20.4161L27.4935 19.4277C26.2265 17.2102 24.3915 16.6644 23.2576 16.5543C23.3109 15.3078 24.3397 14.3088 25.6024 14.3039C25.6195 14.3055 25.6363 14.3083 25.6533 14.3105C25.7053 14.3176 25.7574 14.3244 25.8102 14.3287L26.5806 14.3937L26.8346 13.6636C27.398 12.0448 28.9292 10.957 30.6446 10.957C31.4942 10.957 32.3173 11.227 33.0038 11.7231V41.2371ZM34.996 11.7231C35.6825 11.227 36.5055 10.957 37.3551 10.957C39.0705 10.957 40.6017 12.0448 41.1652 13.6636L41.4193 14.3937L42.1898 14.3287C42.2425 14.3242 42.2945 14.3176 42.3465 14.3105C42.3635 14.3082 42.3803 14.3054 42.3975 14.3039C43.66 14.3088 44.689 15.3078 44.7421 16.5543C43.6082 16.6644 41.7733 17.2102 40.5062 19.4277L42.2358 20.4161C43.4485 18.2939 45.3729 18.5195 45.4633 18.5316L45.4697 18.5325C47.4487 18.8093 48.9413 20.5199 48.9413 22.5117C48.9413 23.7416 48.3893 24.8749 47.4421 25.6351C46.7941 25.355 45.7165 25.0486 44.4986 25.3542C43.0437 25.719 41.8284 26.8195 40.8862 28.6252L42.6525 29.5467C43.3148 28.2771 44.0922 27.5185 44.963 27.2916C45.9143 27.0438 46.7625 27.5025 46.9324 27.603C47.6761 28.2173 48.1024 29.1032 48.1024 30.0421C48.1024 31.2299 47.4324 32.311 46.3538 32.8635L45.4025 33.3508L45.9556 34.2656C46.2671 34.7805 46.4249 35.3301 46.4249 35.8992C46.4249 37.5563 45.1197 38.9422 43.4515 39.0598C43.3338 39.0613 42.3162 39.0525 41.695 38.3926C41.2485 37.9184 41.0709 37.1649 41.1672 36.1532L39.1841 35.9643C39.0297 37.5847 39.3931 38.8682 40.2641 39.7791C40.7526 40.2899 41.3206 40.5969 41.8471 40.7811C40.9339 41.8123 39.6056 42.4337 38.194 42.4337C37.0049 42.4337 35.8838 42.0107 34.996 41.2371V11.7231Z" fill="#22282F"/>
<path d="M54.2539 27.7578H56.2461V29.75H54.2539V27.7578Z" fill="#22282F"/>
<path d="M54.2539 23.6406H56.2461V25.6328H54.2539V23.6406Z" fill="#22282F"/>
</svg>
