<svg width="68" height="68" viewBox="0 0 68 68" fill="none" xmlns="http://www.w3.org/2000/svg">
<path d="M62.524 4.54676C49.8906 2.95846 37.5824 7.57966 28.2191 16.4841C14.7894 14.642 6.44462 25.3414 5.22283 34.0801C5.09903 34.7538 5.72245 35.4001 6.39929 35.3011C6.39927 35.3011 16.4754 34.077 16.4754 34.077C17.1906 34.793 18.083 35.6812 19.1976 36.7914L17.4746 40.266C16.8676 41.4925 17.1093 42.9669 18.0774 43.935L24.0654 49.923C25.0369 50.8954 26.5184 51.1298 27.7343 50.5248L31.204 48.8051C32.5346 50.1359 33.6302 51.2316 34.2888 51.8903C34.6231 52.225 35.1367 52.2956 35.5474 52.0729C38.8701 50.2669 44.3317 46.8822 49.5687 41.7992C50.1437 52.09 42.1127 58.8558 34.988 60.388C34.9882 60.3882 35.4572 56.5366 35.4572 56.5366C35.6004 55.1403 33.5355 54.8965 33.3488 56.2793C33.3488 56.2793 32.7003 61.6022 32.7003 61.6022C32.6598 61.9342 32.777 62.2652 33.0178 62.4966C33.2582 62.7291 33.5974 62.8329 33.9246 62.7799C42.1531 61.6284 53.3731 53.6473 51.5235 39.8034C59.5147 31.7665 65.3265 18.069 63.4533 5.47633C63.3955 4.98878 63.0116 4.60486 62.524 4.54676ZM26.7901 48.6208C26.3844 48.8242 25.8906 48.7432 25.5679 48.4205L19.5799 42.4325C19.2572 42.1099 19.1763 41.618 19.3786 41.2103L20.7836 38.3755C23.5324 41.1298 26.8682 44.4679 29.6188 47.2195L26.7901 48.6208ZM61.0226 17.165C57.7842 35.2078 42.4226 45.784 35.2258 49.8223C31.7191 46.3176 23.0112 37.5904 18.1781 32.7735C19.742 29.9423 22.3339 26.1085 24.5863 23.4383C25.4687 22.365 23.8391 21.016 22.9489 22.0832C20.5955 24.8596 17.7709 29.0653 16.1954 31.9696C16.1954 31.9696 7.60911 33.0132 7.60911 33.0132C8.34477 30.0281 10.6005 23.7931 16.9983 20.4365C21.5575 18.0428 26.0794 18.2928 28.3694 18.6518C28.6928 18.692 29.0305 18.6182 29.2804 18.3893C38.0348 9.93034 49.5193 5.31164 61.4345 6.56599C61.7862 10.1508 61.6482 13.7118 61.0226 17.165Z" fill="black"/>
<path d="M18.1874 49.8493C10.8516 43.3162 4.3535 56.2112 4.25262 62.6199C4.19859 63.2393 4.76202 63.8022 5.38034 63.7479C11.7734 63.648 24.6379 57.1759 18.1874 49.8493ZM16.1848 57.0502C14.5402 58.5174 12.6695 59.6619 10.6264 60.4504C9.29518 60.963 7.91103 61.3158 6.49574 61.5046C6.97262 57.9041 8.52813 54.5221 10.9605 51.8031C14.7492 47.3724 20.6629 53.1968 16.1848 57.0502Z" fill="black"/>
<path d="M37.5589 18.3665C32.1918 23.6274 36.0808 33.0176 43.5958 32.9416C51.1172 33.0045 54.9902 23.6546 49.6333 18.3665C46.3049 15.0379 40.8876 15.0379 37.5589 18.3665ZM48.131 28.9386C41.9537 34.7513 33.2496 26.0429 39.0615 19.8689C45.276 14.081 53.918 22.7249 48.131 28.9386Z" fill="black"/>
</svg>
