<svg width="36" height="36" viewBox="0 0 36 36" fill="none" xmlns="http://www.w3.org/2000/svg">
<g clip-path="url(#clip0_256_3657)">
<path d="M18 0C8.05922 0 0 8.05922 0 18C0 27.9408 8.05922 36 18 36C27.9408 36 36 27.9408 36 18C36 8.05922 27.9408 0 18 0Z" fill="black"/>
<path d="M19.9709 16.3712L27.6765 7.41406H25.8505L19.1598 15.1914L13.8159 7.41406H7.65234L15.7333 19.1748L7.65234 28.5677H9.47843L16.5441 20.3546L22.1876 28.5677H28.3511L19.9705 16.3712H19.9709ZM10.1364 8.78872H12.9411L25.8514 27.2556H23.0466L10.1364 8.78872Z" fill="white"/>
</g>
<defs>
<clipPath id="clip0_256_3657">
<rect width="36" height="36" fill="white"/>
</clipPath>
</defs>
</svg>
