<svg width="36" height="36" viewBox="0 0 36 36" fill="none" xmlns="http://www.w3.org/2000/svg">
<path fill-rule="evenodd" clip-rule="evenodd" d="M18 0C21.3526 0.0382568 24.3813 0.862213 27.0861 2.47187C29.7587 4.04939 31.9819 6.28618 33.5431 8.96835C35.143 11.6895 35.962 14.7365 36.0001 18.1095C35.9051 22.7245 34.4495 26.6662 31.6333 29.9345C28.817 33.2029 25.2101 35.2249 21.4763 36V23.0609H25.0063L25.8046 17.9762H20.4593V14.6458C20.4296 13.9554 20.648 13.2771 21.0749 12.7337C21.5023 12.1888 22.2551 11.9023 23.3332 11.8744H26.561V7.42031C26.5147 7.40541 26.0753 7.34649 25.2426 7.24354C24.2983 7.13306 23.3488 7.07404 22.3981 7.06676C20.2463 7.07669 18.5446 7.68365 17.2929 8.88764C16.0411 10.0913 15.4017 11.8327 15.3746 14.1119V17.9762H11.3068V23.0609H15.3746V36C10.79 35.2249 7.18304 33.2029 4.36681 29.9345C1.55058 26.6662 0.0950269 22.7245 0 18.1095C0.0380195 14.7364 0.856995 11.6893 2.45693 8.96835C4.01815 6.28618 6.24136 4.04939 8.91397 2.47187C11.6187 0.862523 14.6474 0.0385667 18 0Z" fill="#3A5897"/>
</svg>
