<svg width="36" height="36" viewBox="0 0 36 36" fill="none" xmlns="http://www.w3.org/2000/svg">
<path fill-rule="evenodd" clip-rule="evenodd" d="M18.0445 0C8.08891 0 0 8.02935 0 18.0002C0 27.9706 8.08891 36 18.0445 36C28.0001 36 36.0001 27.9706 36.0001 18.0002C36.0001 8.02935 28.0001 0 18.0445 0ZM19.4667 22.8531C18.1334 22.7647 17.6001 22.0591 16.5334 21.4414C16.0001 24.4411 15.289 27.2645 13.2445 28.7646C12.6223 24.2648 14.1334 20.912 14.8445 17.2941C13.6 15.2647 15.0223 11.0296 17.6001 12.0882C20.8001 13.3237 14.8445 19.8529 18.8445 20.6469C23.1112 21.5293 24.8001 13.3237 22.2223 10.6765C18.4 6.8823 11.2 10.5881 12.0889 16.0587C12.3556 17.3825 13.6889 17.8235 12.7112 19.6766C10.2222 19.1473 9.51115 17.2057 9.60001 14.7354C9.77778 10.5881 13.3334 7.67627 16.9778 7.23534C21.5112 6.70601 25.7778 8.91173 26.3112 13.1469C27.0223 18.0002 24.2667 23.2061 19.4667 22.8531Z" fill="#E8170E"/>
</svg>
