<svg width="36" height="36" viewBox="0 0 36 36" fill="none" xmlns="http://www.w3.org/2000/svg">
<g clip-path="url(#clip0_256_3663)">
<path d="M18 0C14.4399 0 10.9598 1.05568 7.99974 3.03355C5.03966 5.01141 2.73255 7.82263 1.37018 11.1117C0.00779907 14.4008 -0.348661 18.02 0.345873 21.5116C1.04041 25.0033 2.75474 28.2106 5.27209 30.7279C7.78943 33.2453 10.9967 34.9596 14.4884 35.6541C17.98 36.3487 21.5992 35.9922 24.8883 34.6298C28.1774 33.2675 30.9886 30.9603 32.9665 28.0003C34.9443 25.0402 36 21.5601 36 18C36 13.2261 34.1036 8.64773 30.7279 5.27208C27.3523 1.89642 22.7739 0 18 0ZM12.7658 27.4737H8.83896V14.8239H12.7658V27.4737ZM10.8 13.0974C10.3481 13.0992 9.90574 12.9671 9.52891 12.7176C9.15208 12.4681 8.85766 12.1125 8.68288 11.6958C8.5081 11.279 8.4608 10.8198 8.54696 10.3761C8.63312 9.93249 8.84887 9.52435 9.16694 9.2033C9.48501 8.88225 9.89112 8.66271 10.3339 8.57241C10.7768 8.48212 11.2364 8.52514 11.6548 8.69603C12.0732 8.86692 12.4315 9.158 12.6845 9.5325C12.9374 9.90699 13.0737 10.3481 13.0761 10.8C13.0773 11.406 12.8386 11.9879 12.4121 12.4184C11.9856 12.8489 11.406 13.093 10.8 13.0974ZM27.4737 27.4737H23.5492V21.3158C23.5492 19.8474 23.5208 17.9645 21.5076 17.9645C19.4945 17.9645 19.1392 19.5608 19.1392 21.2092V27.4737H15.229V14.8239H18.9971V16.5482H19.0516C19.575 15.5534 20.8563 14.5042 22.7676 14.5042C26.7418 14.5042 27.4737 17.1237 27.4737 20.5247V27.4737Z" fill="#007BB5"/>
</g>
<defs>
<clipPath id="clip0_256_3663">
<rect width="36" height="36" fill="white"/>
</clipPath>
</defs>
</svg>
