<svg width="14" height="14" viewBox="0 0 14 14" fill="none" xmlns="http://www.w3.org/2000/svg">
<path d="M13.091 6.67934L11.2737 6.16C10.4553 5.92928 9.70978 5.49239 9.10853 4.89114C8.50728 4.28989 8.07039 3.5444 7.83967 2.726L7.32033 0.90867C7.29421 0.845088 7.24978 0.790705 7.19269 0.752433C7.13559 0.71416 7.0684 0.693726 6.99967 0.693726C6.93093 0.693726 6.86374 0.71416 6.80664 0.752433C6.74955 0.790705 6.70512 0.845088 6.679 0.90867L6.15967 2.726C5.92894 3.5444 5.49205 4.28989 4.8908 4.89114C4.28955 5.49239 3.54406 5.92928 2.72567 6.16L0.908332 6.67934C0.838553 6.69914 0.777138 6.74117 0.733407 6.79904C0.689676 6.85691 0.666016 6.92747 0.666016 7C0.666016 7.07254 0.689676 7.1431 0.733407 7.20097C0.777138 7.25884 0.838553 7.30086 0.908332 7.32067L2.72567 7.84C3.54406 8.07073 4.28955 8.50762 4.8908 9.10887C5.49205 9.71012 5.92894 10.4556 6.15967 11.274L6.679 13.0913C6.6988 13.1611 6.74083 13.2225 6.7987 13.2663C6.85657 13.31 6.92713 13.3337 6.99967 13.3337C7.0722 13.3337 7.14276 13.31 7.20063 13.2663C7.2585 13.2225 7.30053 13.1611 7.32033 13.0913L7.83967 11.274C8.07039 10.4556 8.50728 9.71012 9.10853 9.10887C9.70978 8.50762 10.4553 8.07073 11.2737 7.84L13.091 7.32067C13.1608 7.30086 13.2222 7.25884 13.2659 7.20097C13.3097 7.1431 13.3333 7.07254 13.3333 7C13.3333 6.92747 13.3097 6.85691 13.2659 6.79904C13.2222 6.74117 13.1608 6.69914 13.091 6.67934Z" fill="url(#paint0_linear_17_73)"/>
<defs>
<linearGradient id="paint0_linear_17_73" x1="13.3333" y1="7.01369" x2="0.666016" y2="7.01369" gradientUnits="userSpaceOnUse">
<stop stop-color="#36FFF3"/>
<stop offset="1" stop-color="#63FF4B"/>
</linearGradient>
</defs>
</svg>
